<mxfile host="app.diagrams.net" modified="2022-06-04T04:29:01.773Z" agent="5.0 (Macintosh; Intel Mac OS X 10_15_7) AppleWebKit/537.36 (KHTML, like Gecko) Chrome/102.0.5005.61 Safari/537.36" etag="AJF0vqT0Mmo30PBYZr7d" version="19.0.0" type="github">
  <diagram id="1_RYDngPA9WwiFgJeRlu" name="Page-1">
    <mxGraphModel dx="1180" dy="705" grid="1" gridSize="10" guides="1" tooltips="1" connect="1" arrows="1" fold="1" page="1" pageScale="1" pageWidth="850" pageHeight="1100" math="0" shadow="0">
      <root>
        <mxCell id="0" />
        <mxCell id="1" parent="0" />
        <mxCell id="19L9-AhEZHPyoRiAYEkV-5" value="UI" style="verticalAlign=top;align=left;spacingTop=8;spacingLeft=2;spacingRight=12;shape=cube;size=10;direction=south;fontStyle=4;html=1;fontFamily=Victor Mono Regular;fontSource=https%3A%2F%2Fcdn.jsdelivr.net%2Fnpm%2Fvictormono%401.5.3%2Fdist%2Fwoff%2FVictorMono-Regular.woff;" vertex="1" parent="1">
          <mxGeometry x="510" y="90" width="180" height="120" as="geometry" />
        </mxCell>
        <mxCell id="19L9-AhEZHPyoRiAYEkV-6" value="Contacts" style="verticalAlign=top;align=left;spacingTop=8;spacingLeft=2;spacingRight=12;shape=cube;size=10;direction=south;fontStyle=4;html=1;fontFamily=Victor Mono Regular;fontSource=https%3A%2F%2Fcdn.jsdelivr.net%2Fnpm%2Fvictormono%401.5.3%2Fdist%2Fwoff%2FVictorMono-Regular.woff;" vertex="1" parent="1">
          <mxGeometry x="40" y="40" width="400" height="320" as="geometry" />
        </mxCell>
        <mxCell id="19L9-AhEZHPyoRiAYEkV-7" value="&lt;div style=&quot;box-sizing:border-box;width:100%;background:#e4e4e4;padding:2px;&quot;&gt;Contacts&lt;/div&gt;&lt;table style=&quot;width:100%;font-size:1em;&quot; cellpadding=&quot;2&quot; cellspacing=&quot;0&quot;&gt;&lt;tbody&gt;&lt;tr&gt;&lt;td&gt;PK&lt;/td&gt;&lt;td&gt;_id (mongoDB gen)&lt;br&gt;&lt;/td&gt;&lt;/tr&gt;&lt;tr&gt;&lt;td&gt;&lt;br&gt;&lt;/td&gt;&lt;td&gt;Name&lt;/td&gt;&lt;/tr&gt;&lt;tr&gt;&lt;td&gt;&lt;/td&gt;&lt;td&gt;Email&lt;br&gt;Twitter&lt;br&gt;LinkedIn&lt;br&gt;&lt;br&gt;&lt;/td&gt;&lt;/tr&gt;&lt;/tbody&gt;&lt;/table&gt;" style="verticalAlign=top;align=left;overflow=fill;html=1;fontFamily=Victor Mono Regular;fontSource=https%3A%2F%2Fcdn.jsdelivr.net%2Fnpm%2Fvictormono%401.5.3%2Fdist%2Fwoff%2FVictorMono-Regular.woff;" vertex="1" parent="1">
          <mxGeometry x="160" y="60" width="180" height="110" as="geometry" />
        </mxCell>
      </root>
    </mxGraphModel>
  </diagram>
</mxfile>
